<svg version="1.1" viewBox="0 0 1600 900" width="1600" height="900" xmlns="http://www.w3.org/2000/svg">

<path transform="translate(1292,126)" d="m0 0 2 1 5 17 10 23 11 20 20 30 12 17 14 20 12 19 10 18 9 19 6 19 3 14 1 9v19l-3 19-5 16-7 16-7 11-10 13-13 13-16 11-15 7-17 5-8 1h-26l-16-3-16-6-15-8-11-9-14-14-9-13-9-16-6-16-5-25v-22l3-18 6-20 7-17 13-23 10-16 13-19 13-18 16-24 9-15 12-23 7-18z" fill="#FEFEFE"/>
<path transform="translate(914,524)" d="m0 0h78l12 4 10 8 5 9 5 24 16 84 1 3 15-49 12-40 9-29 4-13 1-1h67l-1 8-9 29-18 60-15 51-7 23-16 53-3 10h-85l-15-74-13-63-4-20-1-1-19 63-16 53-12 40-1 2h-70l3-12 35-116 24-80 7-23z" fill="#7ED148"/>
<path transform="translate(560,227)" d="m0 0h45l20 2 22 5 13 7 8 7 5 8 3 11v10l-6 33-9 36-12 36-7 18h55l2 2-11 37-1 2-75 1-20 1-20 4-14 5-10 6-10 9h-4l-1-2 4-12 7-13 12-13 8-7 13-8 4-2-17 4-17 9-13 10-8 9-3 4h-19l-20-3-11-4-9-6-7-7-6-11-3-8-1-6v-24l7-32 12-39 11-30 8-17 9-11 10-7 14-7 20-5 6-1z" fill="#009CCE"/>
<path transform="translate(725,523)" d="m0 0h148l-1 7-14 47-1 2-102 1-8 3-7 9-9 20-2 3 4-1h52l31 1-2 9-11 36-89 1-5 19-1 13 4 6 4 2 28 3h37l30-3 13-2-1 8-14 48-1 3-30 4-12 1-25 1h-22l-35-2-18-3-12-6-10-10-8-16-3-12-1-7v-18l3-16 12-45 11-42 11-41 4-6 6-5 11-5 15-4z" fill="#7ED148"/>
<path transform="translate(1264,522)" d="m0 0h145l-1 8-12 35-5 5-15 14-8 7-12 11-20 18-8 7-12 11-10 9-8 7-12 11-8 7-12 11-8 7-13 12-8 7-7 6 119 1-2 10-11 32h-208l2-9 11-33 13-12 8-7 10-9 11-10 8-7 30-27 9-8h2v-2l8-7 20-18 8-7 20-18 11-10 6-5 1-2-59 1-17 2-19 5-16 8-10 9-3 3h-5l1-7 11-19 9-13 9-10 10-9 15-8 18-5z" fill="#7ED148"/>
<path transform="translate(293,523)" d="m0 0h149l-2 9-13 44-2 3-105 1-8 3-5 5-11 21-8 20-5 16-4 15-4 22v14l8 4 27 3h46l26-3 6-1 1 3-16 55-6 2-24 3-13 1-26 1h-16l-38-2-15-2-11-4-6-4-5-4-7-10-4-8-4-14-1-7v-23l7-35 5-20 10-30 10-23 10-17 8-10 7-8 14-11 13-6z" fill="#7ED148"/>
<path transform="translate(756,226)" d="m0 0h60l1 2-17 56-14 47-9 29-6 20v8l6 7 11 4 9 2 16-2 14-5 9-8 5-10 13-43 14-46 18-59 1-2h65l-1 8-22 72-24 79-6 18-8 11-9 9-15 9-16 6-16 4-18 2h-59l-18-3-16-6-8-6-6-7-4-9-1-5v-14l4-16 17-55 18-59 11-36z" fill="#009CCF"/>
<path transform="translate(348,227)" d="m0 0h68v214h-59l-1-1v-44h-66l-2 5-12 22-10 17-1 1h-67l2-5 17-29 17-28 10-17 57-95 12-17 11-11 14-9z" fill="#009CCF"/>
<path transform="translate(1056,227)" d="m0 0h69v214h-59l-1-44-66-1-2 6-22 38-1 1h-67l2-5 16-27 27-45 19-32 17-28 19-32 12-18 11-12 10-8 12-6z" fill="#009CCF"/>
<path transform="translate(463,523)" d="m0 0h69l1 4-14 46-16 53-9 30-5 22v14l6 7 5 2 19 2h33l29-3 17-3h6l-2 10-14 48-16 3-40 4h-43l-37-4-13-4-10-6-8-8-5-10-3-11v-23l5-24 15-53 16-52 13-43z" fill="#7ED148"/>
<path transform="translate(562,270)" d="m0 0h28l11 2 6 7 2 5-1 9-8 30-10 32-12 32-6 8-7 6-5 2-9 1h-21l-12-3-6-5-2-10 5-23 9-33 10-29 8-19 5-6 7-4z" fill="#FEFEFE"/>
<path transform="translate(1292,126)" d="m0 0 2 1 5 17 10 23 11 20 20 30 12 17 14 20 12 19 10 18 9 19 6 19 3 14 1 9v19l-3 19-5 16-7 16-7 11-10 13-13 13-16 11-15 7-17 5-8 1h-26l-16-3-16-6-15-8-11-9-14-14-9-13-9-16-6-16-5-25v-22l3-18 6-20 7-17 13-23 10-16 13-19 13-18 16-24 9-15 12-23 7-18zm0 32-8 17-14 24-16 24-13 18-24 36-12 22-7 16-6 19-3 19v17l3 19 6 18 9 17 9 12 11 12 10 8 14 8 13 5 11 3 8 1h19l16-3 15-5 14-8 10-8 13-13 7-10 8-14 6-15 5-21v-29l-4-19-8-22-13-25-14-22-24-34-16-24-9-15-13-25-1-3z" fill="#009CCF"/>
<path transform="translate(1371,324)" d="m0 0 2 1 2 16v12l-2 17-6 20-7 12-6 7-13 9-14 6-22 5-12 3-10 4-9 7-5 6-2 3v-7l5-12 5-10 8-10 12-11 16-10 24-13 4-4-14 7-13 5-16 8-9 6-3 4h-2v2h-2l-2 5-3 4h-2v-10l4-16 5-12 8-11 4-5h2v-2l11-8 13-6 34-10 9-5h2l2-5z" fill="#558B3D"/>
<path transform="translate(1253,250)" d="m0 0 6 2 14 12 10 11 11 18 5 13 2 10v10l-3 15-8 16-10 16-7 12-3 9v16l1 5h-2l-8-15-4-14-1-8v-13l2-16 10-35 1-10-5 16-9 23-4 15v17l1 8-4-2-6-7-8-14-5-16-1-5v-15l4-18 8-16 11-19 2-6z" fill="#8DC744"/>
<path transform="translate(1438,178)" d="m0 0h16l4 13 5 18 1 2 8-31 1-2h16v54h-10l-1-34-9 34h-11l-9-35-1 34-1 1h-9z" fill="#1D2519"/>
<path transform="translate(356,279)" d="m0 0h2v77l-1 1h-44l2-5 13-24 13-23 10-17z" fill="#FEFEFE"/>
<path transform="translate(1066,278)" d="m0 0h1v78l-1 1h-44l8-16 14-25 15-27 6-10z" fill="#FEFEFE"/>
<path transform="translate(1389,178)" d="m0 0h42v9l-15 1-1 44h-10l-1-1v-44h-15z" fill="#1B2419"/>
</svg>
